<svg width="288" height="159" viewBox="0 0 288 159" fill="none" xmlns="http://www.w3.org/2000/svg">
<g filter="url(#filter0_d)">
<rect x="6" y="2" width="276" height="147" rx="2" fill="#E6E6E6"/>
</g>
<path fill-rule="evenodd" clip-rule="evenodd" d="M59.4408 92.3241C69.7909 86.4555 72.8963 106.094 66.0492 111.173C59.8779 115.733 53.4495 107.629 55.9173 97.3352C56.694 94.108 57.7087 93.3171 59.4401 92.3473L59.4408 92.3241ZM69.0844 84.4352C64.8251 79.2205 56.9722 79.3904 51.7768 83.8141C42.86 91.4442 42.5422 111.941 52.0167 119.841C58.6054 125.326 63.9687 122.748 69.8202 119.046L69.8764 122.347L79.5704 122.233L79.4913 81.2625L69.8777 81.3523C69.6192 81.9839 69.7385 84.2638 69.5988 84.6477C68.7627 86.6792 70.0768 85.1326 69.0914 84.4337L69.0844 84.4352Z" fill="#00448C"/>
<path d="M69.2142 85.5227C69.2592 85.51 69.304 85.5865 69.349 85.5737C69.3714 85.5737 69.3827 85.5479 69.4052 85.5352H69.495C69.5737 85.5479 69.5849 85.5737 69.5399 85.6757L69.4388 85.6885C69.3714 85.6885 69.4165 85.7013 69.3716 85.6375H69.349C69.349 85.5993 69.3713 85.5608 69.3826 85.548C69.3826 85.5225 69.3827 85.497 69.4052 85.4842C69.4277 85.4587 69.5401 85.4842 69.5626 85.4842L69.5512 85.6119H69.4727C69.4615 85.6119 69.45 85.6374 69.4388 85.6119L69.3939 85.5866H69.3603H69.3716V85.6119L69.4052 85.5737H69.4837C69.4949 85.7267 69.4615 85.6503 69.5176 85.6885H69.4165C69.394 85.6758 69.3828 85.65 69.3603 85.65C69.3153 85.6372 69.2705 85.714 69.2255 85.6885V85.5609L69.2142 85.5227ZM69.3154 85.2675C69.3154 85.2675 69.3377 85.2677 69.349 85.2932H69.5626C69.6075 85.2932 69.6298 85.2803 69.5848 85.3823H69.495C69.4501 85.4078 69.4163 85.3185 69.3826 85.3185L69.3377 85.3313L69.2927 85.3442C69.2366 85.2932 69.2031 85.204 69.2705 85.1403C69.2817 85.1403 69.3041 85.1401 69.3154 85.1146H69.3603C69.3715 85.1273 69.4051 85.1911 69.4388 85.1656C69.495 85.1273 69.45 85.0891 69.5286 85.1146C69.641 85.1656 69.5064 85.2805 69.4614 85.2422L69.4275 85.1912C69.3938 85.1657 69.3489 85.2423 69.3377 85.255C69.259 85.255 69.1804 85.1785 69.2478 85.0893L69.2814 85.0636L69.3716 85.0383C69.3941 85.0511 69.3938 85.102 69.4275 85.0893C69.4499 85.0893 69.4502 85.0382 69.4614 85.0255H69.5512C69.6636 85.0255 69.7422 85.1531 69.5962 85.2041H69.4614C69.4052 85.0766 69.4613 85.1529 69.4501 85.1274V85.0636L69.6075 85.0765L69.5848 85.2041C69.5471 85.2058 69.5095 85.2014 69.4727 85.1912C69.4727 85.1785 69.4726 85.1529 69.4501 85.1274C69.4613 85.1529 69.4503 85.1147 69.4727 85.0765H69.5848C69.6073 85.0765 69.5626 85.0765 69.5626 85.1403L69.5848 85.1784C69.5848 85.1529 69.5738 85.1527 69.5626 85.1527H69.495C69.4726 85.1272 69.4726 85.0765 69.4501 85.0765C69.4276 85.0765 69.439 85.1272 69.4165 85.1527L69.3716 85.1656C69.3491 85.1656 69.3938 85.1017 69.3377 85.1017H69.3603C69.3603 85.1145 69.4276 85.1911 69.4501 85.1656C69.4501 85.1656 69.4503 85.1272 69.4727 85.1017C69.4952 85.0762 69.6523 85.1019 69.495 85.2294V85.2041L69.4614 85.1403C69.4277 85.102 69.4051 85.1913 69.3939 85.2041L69.3716 85.2165C69.3716 85.2165 69.3491 85.1528 69.3716 85.2165C69.3716 85.2548 69.3713 85.3187 69.4275 85.2932L69.4614 85.2675H69.5848C69.6298 85.3695 69.6075 85.357 69.5626 85.357H69.4388H69.349L69.3154 85.3823V85.255V85.2675Z" fill="#00448C" stroke="#273386" stroke-width="0.917882"/>
<path fill-rule="evenodd" clip-rule="evenodd" d="M94.1153 122.256C94.832 115.169 90.9103 88.2385 100.445 91.2181C107.909 93.5662 100.107 114.852 106.416 122.347L116.528 122.121C113.164 114.649 114 115.507 113.98 105.913C113.98 100.316 113.064 91.1276 119.056 91.1276C128.59 91.1276 118.877 114.92 126.779 122.324L136.95 122.209C130.382 114.309 135.895 100.9 132.989 89.3654C131.895 85.0315 128.61 81.1712 123.813 80.6295C117.205 79.8842 115.632 82.3677 112.029 85.7536C109.681 83.722 108.586 80.9452 103.55 80.607C98.9521 80.2905 95.8212 81.9509 93.6909 84.7052L93.6124 81.9C93.5677 81.6067 93.4969 81.4892 93.3775 81.2864L84.0441 81.4421L84.2834 122.367L94.1166 122.278L94.1153 122.256ZM152.892 92.437C163.362 85.9586 166.128 107.425 159.023 111.488C153.748 114.491 150.146 109.728 149.091 105.416C148.015 101.059 148.673 95.0552 152.892 92.437ZM148.744 119.586C153.418 123.815 162.407 123.971 167.064 119.028C176.797 108.644 174.907 90.0665 165.83 83.1593C158.903 77.8998 153.987 81.2632 149.091 84.6035L149.012 66.726L138.82 66.9288L139.079 122.368L148.489 122.433C148.748 119.57 148.492 122.458 148.489 122.47L148.744 119.586Z" fill="#00448C"/>
<path fill-rule="evenodd" clip-rule="evenodd" d="M186.333 97.5163C187.905 87.6295 197.22 87.8106 198.415 97.5424L186.333 97.5163ZM206.954 109.142C200.286 111.873 188.94 117.156 186.313 106.072L208.586 105.598C209.024 93.9283 205.938 85.0121 198.673 81.6711C179.505 72.8678 167.721 104.673 181.934 118.194C187.905 123.883 199.45 124.965 205.7 118.961C206.695 116.637 206.894 112.573 206.934 109.142H206.954ZM242.444 81.3089L231.695 81.5349L224.788 108.103L218.1 81.2865L207.471 81.3119C207.809 84.8108 217.941 119.325 219.454 122.327L230.64 122.391L242.464 81.3306L242.444 81.3089Z" fill="#00448C"/>
<path d="M198.422 44.0103C198.413 44.0103 198.409 44.011 198.407 44.0133C198.149 44.3275 191.882 55.3061 191.931 55.3584C191.966 55.3958 192.48 55.6016 193.072 55.8149L194.278 56.2489C194.374 56.2833 194.558 56.0139 194.986 55.2163C195.304 54.6221 195.59 54.1178 195.621 54.0939C195.674 54.0565 198.867 55.1938 198.93 55.2739C198.945 55.2926 198.923 55.8949 198.888 56.6125C198.849 57.3294 198.826 57.9242 198.837 57.934C198.847 57.9437 199.429 58.1652 200.131 58.4256C200.833 58.686 201.449 58.9022 201.499 58.9045C201.612 58.9104 201.648 57.9878 201.816 50.7873C201.887 47.7419 201.913 45.2965 201.875 45.2539C201.755 45.1192 198.669 44.0133 198.422 44.0103ZM199.351 47.2547C199.37 47.2764 199.323 48.4654 199.248 49.8984C199.172 51.3305 199.089 52.5292 199.062 52.5622C198.999 52.64 196.902 51.8715 196.902 51.769C196.902 51.653 199.312 47.2083 199.351 47.2547ZM90.0035 57.1378C88.057 56.831 86.4373 55.0838 85.7047 52.5031C85.2886 51.035 85.2018 49.8804 85.4111 48.5964C85.87 45.7859 88.0213 43.7806 91.0016 43.3862C92.2314 43.2238 92.2027 43.2149 92.3839 43.7806L92.7413 44.8917L92.9411 45.5105L92.1204 45.619C90.149 45.8794 88.9569 46.5993 88.4374 47.8451C87.8145 49.3379 88.3161 51.9666 89.4904 53.3598C89.9148 53.8634 90.0507 53.9637 90.5587 54.1448C91.2696 54.3977 91.8906 54.361 92.8377 54.0086C93.5907 53.7295 94.2851 53.2551 94.9456 52.5719L95.4211 52.0788L95.474 52.4095C95.6527 53.5244 95.2711 54.8115 94.5295 55.5971C93.5173 56.6694 91.463 57.3683 90.0035 57.1386V57.1378ZM187.313 53.8724C186.669 53.6853 186.123 53.508 186.099 53.4795C186.058 53.4294 188.635 40.7905 188.703 40.7104C188.741 40.6655 191.221 41.3696 191.284 41.4437C191.306 41.4699 190.735 44.3477 190.015 47.8391C189.088 52.3287 188.673 54.1904 188.595 54.2001C188.534 54.2076 187.957 54.0602 187.313 53.8724ZM99.0715 47.676C98.335 44.1726 97.746 41.2903 97.7632 41.2709C97.8474 41.1706 105.596 38.9932 105.645 39.0553C105.753 39.1907 106.137 41.3405 106.068 41.4168C106.03 41.4579 104.859 41.8164 103.466 42.2137C101.62 42.7397 100.933 42.9717 100.933 43.0682C100.933 43.1969 101.417 45.5524 101.455 45.6101C101.465 45.625 102.349 45.3878 103.418 45.081C104.486 44.7742 105.43 44.5094 105.513 44.4914C105.647 44.463 105.698 44.6074 105.923 45.6527C106.065 46.3089 106.151 46.8671 106.115 46.8933C106.079 46.9195 105.162 47.1949 104.075 47.5047C102.989 47.8144 102.077 48.0868 102.047 48.1085C102.004 48.1399 102.49 50.7604 102.552 50.8299C102.561 50.8397 103.771 50.5007 105.241 50.0772C106.711 49.6529 107.924 49.314 107.936 49.3252C107.948 49.3357 108.042 49.8961 108.145 50.5703C108.313 51.6807 108.319 51.8004 108.202 51.8401C107.811 51.971 100.56 54.046 100.491 54.046C100.447 54.046 99.8079 51.1801 99.0715 47.676ZM180.87 52.1678C180.58 52.0997 180.296 51.9958 180.025 51.8581C179.14 51.3829 178.745 50.6107 178.126 48.1407C177.664 46.2977 177.503 45.7949 177.163 45.1312L176.889 44.5999H177.432C178.829 44.5999 179.669 43.7416 179.669 42.3155C179.669 41.6458 179.397 41.1661 178.824 40.8272C178.522 40.6476 177.017 40.2847 176.944 40.373C176.915 40.4081 176.529 42.7479 176.088 45.5726C175.646 48.3973 175.267 50.7282 175.246 50.7521C175.203 50.8023 172.919 50.3286 172.722 50.2283C172.61 50.1722 172.716 49.391 173.603 43.7372C174.158 40.2024 174.628 37.2946 174.647 37.2751C174.725 37.2003 179.348 38.2479 179.973 38.4828C181.056 38.8899 181.879 39.6314 182.318 40.5967C182.479 40.9484 182.502 41.1317 182.502 42.0738C182.502 43.042 182.481 43.2006 182.292 43.6638C181.837 44.7832 180.976 45.506 179.965 45.619L179.47 45.6752L179.725 45.8877C180.115 46.2147 180.664 47.263 181.218 48.7385C181.913 50.5912 182.302 51.2811 182.897 51.7159L183.133 51.888L182.819 52.0421C182.437 52.2292 181.463 52.292 180.87 52.1686V52.1678ZM112.859 50.6459C112.819 50.4917 110.988 38.2374 110.964 37.9628C110.945 37.7353 110.949 37.7331 113.298 37.2415C116.024 36.6713 116.973 36.6055 117.86 36.9272C118.894 37.3013 119.541 38.0421 119.85 39.2049C120.294 40.884 119.744 42.6005 118.522 43.3488C118.074 43.6234 117.977 43.7566 118.224 43.7581C118.562 43.7603 119.312 44.43 120.478 45.7709C121.773 47.2615 122.288 47.7209 122.852 47.8885C123.037 47.9431 123.19 48.0232 123.19 48.0666C123.19 48.1744 122.578 48.645 122.193 48.8328C121.63 49.1067 121.172 49.2114 120.518 49.2129C119.366 49.2167 118.912 48.8066 117.31 46.3246C116.396 44.9074 115.97 44.3575 115.412 43.8763C115.281 43.7626 115.216 43.6683 115.269 43.6668C115.565 43.6578 116.295 43.2246 116.656 42.8437C117.152 42.3207 117.288 41.9787 117.285 41.2582C117.279 39.9689 116.607 39.2648 115.499 39.3935C114.511 39.508 114.016 39.6509 114.016 39.8222C114.016 39.9105 114.357 42.2369 114.774 44.9927C115.191 47.7493 115.532 50.0458 115.532 50.0966C115.532 50.1475 115.182 50.262 114.754 50.3511C114.327 50.4408 113.731 50.5681 113.432 50.6331C113.027 50.7229 112.881 50.7259 112.859 50.6459ZM163.391 35.3776C163.293 35.3469 162.766 36.7192 160.973 41.663C159.712 45.1409 158.696 48.0052 158.716 48.0284C158.779 48.1033 161.281 48.4123 161.332 48.3524C161.359 48.3203 161.556 47.7568 161.77 47.1013C162.034 46.2925 162.198 45.9101 162.279 45.9139C162.627 45.9281 165.551 46.3463 165.586 46.3875C165.608 46.4137 165.696 46.9943 165.782 47.6775C165.867 48.3614 165.957 48.9428 165.981 48.9705C166.004 48.9982 166.554 49.094 167.202 49.1838C168.7 49.391 168.82 49.3955 168.82 49.2526C168.82 49.1314 167.013 36.3795 166.947 36.0338C166.913 35.8527 166.792 35.8243 165.212 35.6282C164.279 35.5122 163.459 35.3993 163.391 35.3776ZM164.736 38.3332C164.746 38.3332 164.749 38.3669 164.75 38.4335C164.75 38.5143 164.877 39.7018 165.031 41.0718C165.184 42.4419 165.31 43.607 165.31 43.6608C165.31 43.7132 165.23 43.7521 165.131 43.7461C164.823 43.7267 163.042 43.467 163.018 43.4386C162.991 43.4072 164.562 38.6572 164.673 38.435C164.706 38.3676 164.725 38.3339 164.735 38.3332H164.736ZM128.029 48.0846C127.728 47.3864 123.571 35.7038 123.608 35.6596C123.632 35.632 124.323 35.5212 125.144 35.4127C126.282 35.2638 126.65 35.2436 126.695 35.3289C126.727 35.3903 127.432 37.6485 128.262 40.3483C129.249 43.5576 129.79 45.1993 129.826 45.0915C129.856 45.001 130.153 42.6365 130.487 39.8372C130.821 37.0379 131.109 34.7191 131.128 34.6839C131.171 34.6016 133.867 34.2649 133.927 34.3352C133.973 34.3891 131.807 47.6266 131.728 47.7725C131.705 47.8159 130.968 47.9424 130.091 48.0531C129.213 48.1639 128.415 48.2739 128.318 48.2986C128.185 48.3315 128.113 48.2791 128.029 48.0846ZM151.62 47.4972C150.869 47.1485 150.391 46.4017 150.283 45.4065C150.236 44.9688 150.24 44.9538 150.413 45.0114C151.595 45.4065 151.797 45.4237 152.275 45.1693C152.858 44.8595 152.858 44.8551 153.044 39.2678C153.134 36.5665 153.211 34.3532 153.216 34.3479C153.26 34.3016 155.818 34.4677 155.864 34.52C155.968 34.6435 155.594 44.4824 155.46 45.1401C155.227 46.2753 154.745 47.0482 154.042 47.4119C153.44 47.7224 152.199 47.7658 151.62 47.4972ZM138.396 46.5401C138.371 46.1159 138.33 43.1483 138.303 39.9457L138.254 34.1242H140.282C141.397 34.1242 143.231 34.0958 144.357 34.0621L146.404 34V36.5553H145.26C144.631 36.5553 143.411 36.583 142.548 36.6167L140.98 36.6788V37.8565C140.98 38.5038 141.002 39.1264 141.028 39.2386L141.074 39.4429L143.22 39.3875L145.366 39.3321V41.8867H143.702C142.787 41.8867 141.818 41.9136 141.549 41.9466L141.058 42.0064V44.8169L143.85 44.754L146.643 44.6919V47.1881L144.907 47.2495C143.953 47.2839 142.108 47.3116 140.806 47.3116H138.44L138.395 46.5401H138.396Z" fill="#00448C"/>
<defs>
<filter id="filter0_d" x="0" y="0" width="288" height="159" filterUnits="userSpaceOnUse" color-interpolation-filters="sRGB">
<feFlood flood-opacity="0" result="BackgroundImageFix"/>
<feColorMatrix in="SourceAlpha" type="matrix" values="0 0 0 0 0 0 0 0 0 0 0 0 0 0 0 0 0 0 127 0" result="hardAlpha"/>
<feOffset dy="4"/>
<feGaussianBlur stdDeviation="3"/>
<feComposite in2="hardAlpha" operator="out"/>
<feColorMatrix type="matrix" values="0 0 0 0 1 0 0 0 0 1 0 0 0 0 1 0 0 0 0.25 0"/>
<feBlend mode="normal" in2="BackgroundImageFix" result="effect1_dropShadow"/>
<feBlend mode="normal" in="SourceGraphic" in2="effect1_dropShadow" result="shape"/>
</filter>
</defs>
</svg>
