<svg width="288" height="159" viewBox="0 0 288 159" fill="none" xmlns="http://www.w3.org/2000/svg">
<g filter="url(#filter0_d)">
<rect x="6" y="2" width="276" height="147" fill="#E6E6E6"/>
</g>
<g clip-path="url(#clip0)">
<path d="M24 103H79.0926V48H24V103ZM59.3188 52.2029C69.0736 55.3913 76.0893 64.5942 76.1133 75.4879C76.1373 86.2126 69.2418 95.3913 59.3188 98.7971V52.2029ZM51.5343 50.9469C53.2882 50.9469 55.1623 51.1643 56.724 51.5024C56.724 63.9662 44.6387 74.2077 32.193 74.2077H26.9793C27.8442 61.4299 38.4399 50.9469 51.5343 50.9469ZM32.193 76.7923C44.6627 76.7923 56.724 87.0338 56.724 99.4976C55.1623 99.8116 53.1921 100.053 51.5343 100.053C38.4159 100.029 27.4838 89.5217 26.9793 76.7923H32.193Z" fill="#00448C"/>
<path d="M97.5449 80.3188V76.8647H109.005V72.4445H97.5449V66.0193H109.75V61.6232H92.8597V80.1739C92.8597 84.8599 94.8539 88.0725 99.5391 88.7246C99.6352 88.7488 99.7313 88.7488 99.8034 88.7488H99.8995C100.38 88.7971 100.861 88.8454 101.389 88.8454H110.063V84.4493H101.413C99.9235 84.401 97.5449 83.6763 97.5449 80.3188Z" fill="#00448C"/>
<path d="M113.402 74.4493V88.8213H118.112V61.599H113.402V74.4493Z" fill="#00448C"/>
<path d="M131.566 68.5072C125.632 68.5072 121.187 72.5894 121.187 78.942V79.1111C121.187 85.3188 125.488 89.3285 131.686 89.3285C134.666 89.3285 137.453 88.5072 140.024 85.8019L137.188 83.0483C135.699 84.5459 134.233 85.3188 131.831 85.3188C128.347 85.3188 126.016 83.2898 125.872 80.1497H141.273C141.345 79.3768 141.345 78.5072 141.345 78.5072C141.345 72.9275 137.453 68.5072 131.566 68.5072ZM125.968 76.8164C126.184 74.4251 128.611 72.4927 131.542 72.4927C134.305 72.4927 136.54 74.4493 136.54 76.8164H125.968Z" fill="#00448C"/>
<path d="M154.56 72.7101C156.674 72.7101 158.236 73.4831 159.581 74.8599L162.488 71.8406C160.206 69.4251 157.491 68.4348 154.56 68.4348C148.577 68.4348 143.772 72.8551 143.772 78.8937C143.772 84.9324 148.553 89.3768 154.536 89.3768C157.467 89.3768 160.182 88.3865 162.464 85.9469L159.557 82.9275C158.212 84.3043 156.65 85.1014 154.536 85.1014C151.076 85.1014 148.433 82.4686 148.433 78.8937C148.457 75.343 151.076 72.7101 154.56 72.7101Z" fill="#00448C"/>
<path d="M170.105 80.3189V73.3865H174.381V69.1111H170.129V61.5749H165.42V80.6087C165.564 85.029 167.558 88.0483 172.099 88.6763C172.195 88.7005 172.291 88.7246 172.387 88.7246H172.459C172.94 88.773 173.444 88.8213 173.949 88.8213H174.454V84.4251H173.973C172.483 84.401 170.105 83.6763 170.105 80.3189Z" fill="#00448C"/>
<path d="M182.983 72.058V69.1353H178.322V88.8212H182.983V78.4589C182.983 75.2222 185.049 73.1691 188.293 73.1691C189.038 73.1691 189.71 73.2415 190.239 73.3623V68.8212C190.047 68.7729 189.35 68.7005 188.845 68.7005C186.034 68.7246 183.92 70.029 182.983 72.058Z" fill="#00448C"/>
<path d="M201.723 68.5314C195.741 68.5314 190.96 73.0725 190.96 78.9662C190.96 84.8599 195.717 89.401 201.723 89.401C207.658 89.401 212.487 84.8599 212.487 78.9662C212.487 73.0725 207.682 68.5314 201.723 68.5314ZM201.723 85.1498C198.24 85.1498 195.621 82.4444 195.621 78.9662C195.621 75.4879 198.24 72.7826 201.723 72.7826C205.183 72.7826 207.826 75.4879 207.826 78.9662C207.826 82.4444 205.183 85.1498 201.723 85.1498Z" fill="#00448C"/>
<path d="M215.371 73.9662V88.7971H220.08V61.5749H215.371V73.9662Z" fill="#00448C"/>
<path d="M237.018 80.5604C237.018 83.6763 235.192 85.0048 232.718 85.0048C230.267 85.0048 228.417 83.6763 228.417 80.6087V69.1111H223.684V80.9952C223.684 86.6232 227.792 89.3285 232.67 89.3285C237.595 89.3285 241.752 86.599 241.752 80.8986V74.8357V69.1353H237.018V80.5604Z" fill="#00448C"/>
<path d="M259.507 82.5169L256.552 78.3865L260.228 73.4106L263.351 69.1353H258.234L253.957 75.029L249.656 69.1353H244.563L247.47 73.1208L251.362 78.4348L247.278 84.1111L243.89 88.8454H248.935L253.933 81.8889L258.954 88.8454H264L259.507 82.5169Z" fill="#00448C"/>
</g>
<defs>
<filter id="filter0_d" x="0" y="0" width="288" height="159" filterUnits="userSpaceOnUse" color-interpolation-filters="sRGB">
<feFlood flood-opacity="0" result="BackgroundImageFix"/>
<feColorMatrix in="SourceAlpha" type="matrix" values="0 0 0 0 0 0 0 0 0 0 0 0 0 0 0 0 0 0 127 0" result="hardAlpha"/>
<feOffset dy="4"/>
<feGaussianBlur stdDeviation="3"/>
<feComposite in2="hardAlpha" operator="out"/>
<feColorMatrix type="matrix" values="0 0 0 0 1 0 0 0 0 1 0 0 0 0 1 0 0 0 0.25 0"/>
<feBlend mode="normal" in2="BackgroundImageFix" result="effect1_dropShadow"/>
<feBlend mode="normal" in="SourceGraphic" in2="effect1_dropShadow" result="shape"/>
</filter>
<clipPath id="clip0">
<rect width="240" height="55" fill="white" transform="translate(24 48)"/>
</clipPath>
</defs>
</svg>
