<svg width="288" height="159" viewBox="0 0 288 159" fill="none" xmlns="http://www.w3.org/2000/svg">
<g filter="url(#filter0_d)">
<rect x="6" y="2" width="276" height="147" rx="2" fill="#E6E6E6"/>
</g>
<g clip-path="url(#clip0)">
<path d="M178.618 22.0042H108.383C105.323 22.0042 102.834 24.489 102.834 27.5431V97.6442C102.834 100.698 105.323 103.183 108.383 103.183H178.618C181.678 103.183 184.167 100.698 184.167 97.6442V27.5431C184.167 24.489 181.678 22.0042 178.618 22.0042V22.0042ZM182.254 97.6442C182.254 99.6402 180.617 101.272 178.618 101.272H108.383C106.383 101.272 104.747 99.6402 104.747 97.6442V27.5431C104.747 25.5481 106.383 23.9142 108.383 23.9142H178.618C180.617 23.9142 182.254 25.5481 182.254 27.5431V97.6442Z" fill="white"/>
<path d="M182.254 97.6442C182.254 99.6402 180.617 101.272 178.618 101.272H108.383C106.383 101.272 104.747 99.6402 104.747 97.6442V27.5431C104.747 25.5481 106.383 23.9142 108.383 23.9142H178.618C180.617 23.9142 182.254 25.5481 182.254 27.5431V97.6442Z" fill="#003E7E"/>
<path d="M152.862 88.6144C154.609 87.9474 155.493 86.689 155.493 84.6873C155.493 84.5734 155.484 84.4678 155.478 84.3586C155.317 81.7398 153.25 80.4526 150.762 80.4526H144.004V93.8041H147.179V88.9966H149.453L151.907 93.8041H155.494L152.862 88.6144ZM150.279 86.7322H147.179V82.7937H150.279C151.495 82.7937 152.241 83.3619 152.241 84.7408C152.241 86.075 151.554 86.7322 150.279 86.7322ZM127.108 80.449H123.499L121.28 86.2934L118.782 81.9484C118.307 81.1243 117.14 80.4495 116.187 80.4495H114.381L119.859 90.0562L118.428 93.8062H120.306C121.258 93.8062 122.313 93.0788 122.651 92.1887L127.108 80.449ZM136.668 87.9886H132.125L134.029 82.9776C134.23 82.444 134.561 82.444 134.764 82.9766L136.668 87.9886ZM137.52 90.2339L138.876 93.8062H142.277L137.82 82.0664C137.483 81.1763 136.427 80.449 135.475 80.449H131.586L126.516 93.8057H128.217C129.152 93.8057 130.193 93.0783 130.53 92.1882L131.272 90.2334H137.52V90.2339ZM164.051 82.9761C164.254 82.4435 164.585 82.4435 164.787 82.9771L166.691 87.9881H162.148L164.051 82.9761ZM161.296 90.2339H167.543L168.285 92.1887C168.622 93.0788 169.663 93.8062 170.598 93.8062H172.299L167.229 80.4495H163.34C162.389 80.4495 161.334 81.1768 160.996 82.0669L156.539 93.8067H159.94L161.295 90.2344H161.296V90.2339Z" fill="white"/>
<path fill-rule="evenodd" clip-rule="evenodd" d="M124.306 42.735C124.306 34.7823 129.576 29.7503 129.576 29.7503C129.703 29.6431 130.135 29.6612 130.475 29.6612H136.362C133.392 32.2475 131.537 38.7667 131.537 42.735C131.537 46.688 133.392 53.2092 136.362 55.8136H130.475C130.135 55.8136 129.703 55.8316 129.576 55.7244C129.576 55.7244 124.306 50.6898 124.306 42.735ZM154.881 55.7244C155.023 55.8316 155.438 55.8136 155.798 55.8136H161.682C158.695 53.2097 156.84 46.688 156.84 42.735C156.84 38.7667 158.695 32.2475 161.682 29.6612H155.798C155.438 29.6612 155.023 29.6431 154.881 29.7503C154.881 29.7503 149.625 34.7813 149.625 42.735C149.625 50.6898 154.881 55.7244 154.881 55.7244ZM142.228 55.7244C142.373 55.8316 142.785 55.8136 143.145 55.8136H149.012C146.042 53.2097 144.173 46.688 144.173 42.735C144.173 38.7667 146.042 32.2475 149.012 29.6612H143.146C142.785 29.6612 142.374 29.6431 142.229 29.7503C142.229 29.7503 136.975 34.8725 136.975 42.735C136.974 50.5986 142.228 55.7244 142.228 55.7244ZM171.015 66.143C170.115 64.3118 168.549 61.1974 168.261 60.143C168.261 60.143 167.318 57.7519 169.852 57.3573C170.923 57.2002 171.639 56.4229 171.692 55.4035L171.68 54.2306C171.675 54.1487 171.642 54.0712 171.584 54.0123C171.527 53.9535 171.45 53.9174 171.368 53.9108L167.186 53.9118C167.113 53.9118 164.247 54.2317 164.211 57.7164C164.125 63.6663 164.252 64.4627 162.652 64.728C162.582 64.7214 162.517 64.6892 162.469 64.6375C162.422 64.5858 162.396 64.5183 162.395 64.4483H162.394C162.397 64.389 162.4 64.3293 162.4 64.269C162.4 61.1047 159.829 58.5385 156.658 58.5385C155.891 58.538 155.132 58.6915 154.426 58.9898C153.719 59.2881 153.08 59.7251 152.546 60.2749H152.545C152.502 60.3393 152.401 60.4299 152.282 60.4299C152.165 60.4299 152.063 60.3398 152.02 60.2749C150.977 59.2055 149.521 58.5385 147.909 58.5385C146.296 58.5385 144.84 59.2055 143.798 60.2749H143.796C143.753 60.3393 143.651 60.4299 143.533 60.4299C143.415 60.4299 143.314 60.3398 143.271 60.2749H143.27C142.228 59.2055 140.773 58.5385 139.159 58.5385C137.545 58.5385 136.091 59.2055 135.048 60.2749H135.047C135.003 60.3393 134.903 60.4299 134.785 60.4299C134.666 60.4299 134.565 60.3398 134.521 60.2749H134.52C133.987 59.7252 133.348 59.2881 132.642 58.9898C131.936 58.6915 131.177 58.538 130.41 58.5385C127.239 58.5385 124.668 61.1047 124.668 64.269C124.668 64.3282 124.671 64.387 124.673 64.4452V64.4483C124.673 64.6064 124.532 64.7311 124.376 64.7311C122.753 64.4694 122.882 63.6921 122.795 57.7164C122.76 54.2312 119.893 53.9118 119.821 53.9118L115.638 53.9108C115.556 53.9171 115.479 53.9531 115.422 54.012C115.365 54.071 115.331 54.1487 115.328 54.2306L115.315 55.4035C115.366 56.4229 116.083 57.2002 117.154 57.3573C119.688 57.7514 118.745 60.143 118.745 60.143C118.458 61.1979 116.89 64.3118 115.991 66.143C115.416 67.3303 114.246 70.2561 116.081 73.0752C117.144 74.7091 118.402 76.2364 122.867 76.1659H164.15C168.628 76.2359 169.871 74.7091 170.934 73.0752L170.928 73.0706C172.758 70.2519 171.591 67.3303 171.015 66.143ZM130.409 60.8312C128.506 60.8312 126.964 62.3703 126.964 64.2695C126.964 66.1687 128.506 67.7078 130.409 67.7078C132.312 67.7078 133.854 66.1687 133.854 64.2695C133.854 62.3703 132.312 60.8312 130.409 60.8312ZM156.658 60.8312C156.206 60.8311 155.758 60.92 155.34 61.0928C154.922 61.2655 154.542 61.5188 154.222 61.838C153.902 62.1573 153.648 62.5364 153.475 62.9536C153.302 63.3708 153.213 63.8179 153.213 64.2695C153.212 64.7211 153.301 65.1683 153.475 65.5855C153.648 66.0028 153.901 66.3819 154.221 66.7013C154.541 67.0207 154.921 67.274 155.339 67.4469C155.757 67.6198 156.205 67.7088 156.657 67.7089C157.571 67.709 158.448 67.3468 159.094 66.702C159.74 66.0572 160.103 65.1826 160.103 64.2705C160.103 63.3585 159.741 62.4838 159.095 61.8388C158.448 61.1938 157.572 60.8313 156.658 60.8312ZM139.158 60.8312C137.256 60.8312 135.714 62.3703 135.714 64.2695C135.714 66.1687 137.256 67.7078 139.158 67.7078C141.061 67.7078 142.603 66.1687 142.603 64.2695C142.603 62.3703 141.061 60.8312 139.158 60.8312ZM147.908 60.8312C146.005 60.8312 144.463 62.3703 144.463 64.2695C144.463 66.1687 146.005 67.7078 147.908 67.7078C149.811 67.7078 151.353 66.1687 151.353 64.2695C151.353 62.3703 149.811 60.8312 147.908 60.8312Z" fill="white"/>
<path d="M87.0099 126.545H84.9966C84.9027 126.545 84.7922 126.481 84.7613 126.434L80.5789 121.445H79.9183V126.309C79.9183 126.45 79.8089 126.545 79.6675 126.545H78.2678C78.1259 126.545 78 126.434 78 126.309V115.183C78 115.057 78.1259 114.947 78.2678 114.947H79.6675C79.8094 114.947 79.9183 115.057 79.9183 115.183V119.891H80.5789L84.5884 115.057C84.6151 115.024 84.6485 114.998 84.6864 114.979C84.7243 114.96 84.7658 114.949 84.8082 114.947L86.6326 114.979C86.7105 114.979 86.8055 115.073 86.8055 115.168C86.8055 115.215 86.79 115.246 86.7585 115.277L82.1664 120.598L87.1358 126.248C87.1645 126.277 87.1812 126.316 87.1827 126.357C87.1833 126.45 87.0883 126.545 87.0099 126.545ZM95.2652 126.545H93.9605C93.8031 126.545 93.7082 126.45 93.7082 126.309V120.675C93.7082 119.701 93.3464 119.388 92.4179 119.388C91.2707 119.388 90.0914 119.717 90.0914 119.717V126.308C90.0914 126.45 89.9975 126.544 89.8561 126.544H88.5504C88.41 126.544 88.2996 126.449 88.2996 126.308V119.639C88.2996 119.027 88.5039 118.807 89.3529 118.54C90.1554 118.306 91.57 118.101 92.5769 118.101C94.4952 118.101 95.5005 118.634 95.5005 120.439V126.308C95.5005 126.45 95.4066 126.545 95.2652 126.545ZM100.988 126.748C97.5757 126.748 97.1515 124.818 97.1515 122.433C97.1515 120.032 97.5757 118.102 100.988 118.102C104.399 118.102 104.809 120.032 104.809 122.433C104.809 124.818 104.4 126.748 100.988 126.748ZM100.988 119.388C99.0698 119.388 98.9903 120.503 98.9903 122.433C98.9903 124.348 99.0693 125.461 100.988 125.461C102.891 125.461 102.969 124.348 102.969 122.433C102.969 120.503 102.891 119.388 100.988 119.388ZM118.379 118.619L116.523 126.293C116.512 126.364 116.475 126.428 116.421 126.474C116.366 126.52 116.297 126.545 116.226 126.545H113.756C113.682 126.548 113.61 126.524 113.552 126.478C113.494 126.432 113.455 126.366 113.442 126.293L112.121 119.985H112.09L110.721 126.293C110.691 126.45 110.564 126.545 110.407 126.545H107.954C107.796 126.545 107.686 126.45 107.639 126.293L105.831 118.635V118.556C105.831 118.415 105.909 118.305 106.035 118.305H107.372C107.545 118.305 107.623 118.383 107.654 118.54L109.007 125.367H109.432L110.737 118.918C110.75 118.845 110.789 118.779 110.847 118.733C110.905 118.686 110.978 118.663 111.052 118.666H113.221C113.379 118.666 113.505 118.76 113.536 118.918L114.857 125.367H115.266L116.555 118.54C116.587 118.383 116.665 118.305 116.854 118.305H118.16C118.191 118.305 118.222 118.31 118.25 118.322C118.279 118.334 118.305 118.351 118.327 118.373C118.349 118.395 118.366 118.421 118.378 118.45C118.39 118.478 118.396 118.509 118.395 118.54C118.395 118.571 118.395 118.588 118.379 118.619ZM123.049 126.481C122.907 126.545 122.467 126.686 121.744 126.686C120.501 126.686 119.809 126.027 119.809 124.802V115.261C119.809 115.088 119.888 115.025 120.046 114.993L121.335 114.743H121.398C121.523 114.743 121.603 114.837 121.603 114.978V124.693C121.603 125.257 121.948 125.368 122.263 125.368C122.499 125.368 122.703 125.337 122.813 125.305H122.876C122.938 125.305 123.002 125.337 123.018 125.445L123.175 126.23V126.293C123.175 126.419 123.08 126.481 123.049 126.481ZM131.727 123.029C131.727 123.171 131.632 123.327 131.46 123.327H125.988C126.003 124.096 126.192 124.536 126.571 124.897C127.01 125.32 127.655 125.461 128.598 125.461C129.589 125.461 130.266 125.241 130.847 125.085C130.878 125.069 130.909 125.069 130.925 125.069C131.02 125.069 131.082 125.116 131.13 125.257L131.319 125.979C131.334 125.995 131.334 126.026 131.334 126.041C131.334 126.152 131.256 126.214 131.161 126.261C130.579 126.497 129.525 126.748 128.362 126.748C125.28 126.748 124.18 125.445 124.18 122.449C124.18 119.607 124.903 118.102 127.985 118.102C129.589 118.102 130.548 118.54 131.098 119.357C131.601 120.063 131.743 121.052 131.743 122.276C131.743 122.48 131.743 122.794 131.727 123.029ZM129.793 120.596C129.558 119.671 129.038 119.372 127.985 119.372C126.837 119.372 126.334 119.686 126.129 120.565C126.003 121.052 126.003 121.57 125.987 122.103L129.934 122.088C129.935 121.553 129.919 121.067 129.793 120.596ZM139.652 126.418C139.038 126.576 138.236 126.748 137.12 126.748C134.054 126.748 133.174 125.555 133.174 122.449C133.174 119.576 133.944 118.102 136.727 118.102C137.812 118.102 138.63 118.306 139.007 118.399L138.85 117.474V115.276C138.85 115.104 138.929 115.026 139.085 114.994L140.359 114.743H140.422C140.548 114.743 140.626 114.837 140.626 114.979V125.196C140.626 125.681 140.595 126.168 139.652 126.418ZM138.849 119.607C138.849 119.607 137.984 119.388 137.104 119.388C135.611 119.388 134.997 119.78 134.997 122.401C134.997 125.163 135.72 125.461 137.151 125.461C138.064 125.461 138.849 125.241 138.849 125.241V119.607ZM150.845 119.324C150.499 119.56 150.107 119.67 149.744 119.67C149.477 119.67 149.445 119.638 149.1 119.576C149.209 119.67 149.744 120.187 149.744 121.129C149.744 123.217 148.313 123.843 146.3 123.843C145.703 123.843 145.656 123.86 145.247 123.86C144.555 123.86 144.367 124.19 144.367 124.582C144.367 125.193 144.792 125.319 145.53 125.319H147.495C148.958 125.319 150.247 125.726 150.247 127.327C150.247 129.305 148.597 129.996 146.3 129.996C143.659 129.996 142.367 129.509 142.367 127.94C142.367 126.605 143.344 126.449 144.02 126.307V126.088C143.312 125.931 142.635 125.9 142.635 124.722C142.635 123.734 143.28 123.513 144.319 123.342C143.659 123.137 142.588 122.808 142.588 121.034C142.588 118.837 144.02 118.099 146.175 118.099C147.166 118.099 147.559 118.241 148.171 118.413C148.345 118.461 148.533 118.477 148.77 118.477C149.005 118.477 149.288 118.444 149.508 118.382C149.788 118.285 150.061 118.17 150.326 118.037C150.373 118.021 150.42 117.99 150.451 117.99C150.514 117.99 150.546 118.021 150.577 118.114L150.907 119.103C150.923 119.135 150.938 119.166 150.938 119.198C150.939 119.231 150.908 119.278 150.845 119.324ZM147.119 126.686H145.483C144.791 126.686 144.099 126.858 144.099 127.722C144.099 128.678 145.011 128.835 146.333 128.835C147.323 128.835 148.503 128.663 148.503 127.58C148.503 126.748 147.81 126.686 147.119 126.686ZM146.191 119.215C144.949 119.215 144.351 119.716 144.351 120.973C144.351 122.228 144.949 122.715 146.191 122.715C147.433 122.715 148.046 122.228 148.046 120.973C148.045 119.717 147.433 119.215 146.191 119.215ZM159.164 123.029C159.164 123.171 159.069 123.327 158.896 123.327H153.423C153.44 124.096 153.627 124.536 154.006 124.897C154.445 125.32 155.091 125.461 156.034 125.461C157.024 125.461 157.7 125.241 158.282 125.085C158.314 125.069 158.346 125.069 158.361 125.069C158.455 125.069 158.517 125.116 158.565 125.257L158.753 125.979C158.769 125.995 158.769 126.026 158.769 126.041C158.769 126.152 158.691 126.214 158.596 126.261C158.015 126.497 156.96 126.748 155.798 126.748C152.716 126.748 151.615 125.445 151.615 122.449C151.615 119.607 152.338 118.102 155.42 118.102C157.024 118.102 157.984 118.54 158.534 119.357C159.037 120.063 159.179 121.052 159.179 122.276C159.18 122.48 159.18 122.794 159.164 123.029ZM157.229 120.596C156.993 119.671 156.474 119.372 155.421 119.372C154.274 119.372 153.769 119.686 153.565 120.565C153.44 121.052 153.44 121.57 153.423 122.103L157.369 122.088C157.369 121.553 157.355 121.067 157.229 120.596ZM173.975 119.324C173.651 119.547 173.267 119.667 172.874 119.67C172.607 119.67 172.574 119.638 172.229 119.576C172.339 119.67 172.874 120.187 172.874 121.129C172.874 123.217 171.443 123.843 169.43 123.843C168.832 123.843 168.785 123.86 168.377 123.86C167.685 123.86 167.497 124.19 167.497 124.582C167.497 125.193 167.921 125.319 168.66 125.319H170.626C172.088 125.319 173.377 125.726 173.377 127.327C173.377 129.305 171.726 129.996 169.43 129.996C166.788 129.996 165.499 129.509 165.499 127.94C165.499 126.605 166.473 126.449 167.15 126.307V126.088C166.442 125.931 165.767 125.9 165.767 124.722C165.767 123.734 166.411 123.513 167.449 123.342C166.788 123.137 165.719 122.808 165.719 121.034C165.719 118.837 167.15 118.099 169.304 118.099C170.295 118.099 170.688 118.241 171.301 118.413C171.474 118.461 171.663 118.477 171.898 118.477C172.134 118.477 172.417 118.444 172.637 118.382C172.917 118.285 173.19 118.17 173.455 118.037C173.502 118.021 173.549 117.99 173.58 117.99C173.643 117.99 173.675 118.021 173.706 118.114L174.036 119.103C174.052 119.135 174.067 119.166 174.067 119.198C174.069 119.231 174.037 119.278 173.975 119.324ZM170.249 126.686H168.613C167.92 126.686 167.229 126.858 167.229 127.722C167.229 128.678 168.141 128.835 169.462 128.835C170.453 128.835 171.632 128.663 171.632 127.58C171.631 126.748 170.94 126.686 170.249 126.686ZM169.32 119.215C168.078 119.215 167.48 119.716 167.48 120.973C167.48 122.228 168.078 122.715 169.32 122.715C170.562 122.715 171.176 122.228 171.176 120.973C171.176 119.717 170.562 119.215 169.32 119.215ZM179.352 119.513C178.377 119.513 177.543 119.607 176.946 119.765V126.309C176.946 126.451 176.851 126.545 176.711 126.545H175.405C175.358 126.545 175.153 126.45 175.153 126.309V119.624C175.153 118.98 175.436 118.792 176.113 118.557C176.789 118.305 177.922 118.132 178.77 118.117H179.038C179.289 118.117 179.257 118.117 179.399 118.149C179.463 118.165 179.571 118.211 179.571 118.383V119.279C179.571 119.403 179.541 119.513 179.352 119.513ZM184.191 126.748C180.779 126.748 180.354 124.818 180.354 122.433C180.354 120.032 180.779 118.102 184.191 118.102C187.603 118.102 188.012 120.032 188.012 122.433C188.012 124.818 187.603 126.748 184.191 126.748ZM184.191 119.388C182.272 119.388 182.194 120.503 182.194 122.433C182.194 124.348 182.272 125.461 184.191 125.461C186.093 125.461 186.172 124.348 186.172 122.433C186.172 120.503 186.093 119.388 184.191 119.388ZM201.581 118.619L199.726 126.293C199.715 126.364 199.678 126.428 199.623 126.474C199.568 126.52 199.499 126.546 199.427 126.545H196.959C196.885 126.548 196.812 126.524 196.754 126.478C196.696 126.432 196.657 126.366 196.644 126.293L195.323 119.985H195.291L193.923 126.293C193.892 126.45 193.766 126.545 193.608 126.545H191.155C190.998 126.545 190.888 126.45 190.84 126.293L189.033 118.635V118.556C189.033 118.415 189.112 118.305 189.237 118.305H190.574C190.747 118.305 190.825 118.383 190.857 118.54L192.209 125.367H192.634L193.939 118.918C193.952 118.845 193.991 118.779 194.049 118.733C194.107 118.687 194.179 118.663 194.253 118.666H196.424C196.581 118.666 196.706 118.76 196.739 118.918L198.059 125.367H198.467L199.757 118.54C199.789 118.383 199.867 118.305 200.056 118.305H201.361C201.392 118.305 201.423 118.31 201.451 118.322C201.48 118.334 201.506 118.351 201.528 118.373C201.55 118.395 201.567 118.421 201.579 118.45C201.591 118.478 201.597 118.509 201.596 118.54C201.6 118.567 201.594 118.595 201.581 118.619ZM205.589 126.748C204.221 126.748 202.978 126.34 202.742 126.247C202.695 126.214 202.602 126.184 202.602 126.057V125.979L202.774 125.195C202.79 125.084 202.852 125.022 202.947 125.022C202.978 125.022 202.994 125.022 203.025 125.037C203.198 125.084 204.315 125.445 205.478 125.445C206.516 125.445 207.224 125.115 207.224 124.284C207.224 123.233 206.454 123.233 205.4 123.061C204.52 122.919 202.679 122.746 202.679 120.612C202.679 118.462 204.598 118.101 205.981 118.101C207.287 118.101 208.309 118.383 208.529 118.446C208.655 118.477 208.702 118.556 208.702 118.65V118.682L208.56 119.528C208.544 119.639 208.465 119.67 208.387 119.67H208.339C208.152 119.639 207.082 119.404 206.201 119.404C205.306 119.404 204.455 119.623 204.455 120.487C204.455 121.428 205.384 121.507 206.28 121.633C207.584 121.837 208.999 122.056 208.999 124.128C209 126.168 207.46 126.748 205.589 126.748Z" fill="#003E7E"/>
</g>
<defs>
<filter id="filter0_d" x="0" y="0" width="288" height="159" filterUnits="userSpaceOnUse" color-interpolation-filters="sRGB">
<feFlood flood-opacity="0" result="BackgroundImageFix"/>
<feColorMatrix in="SourceAlpha" type="matrix" values="0 0 0 0 0 0 0 0 0 0 0 0 0 0 0 0 0 0 127 0" result="hardAlpha"/>
<feOffset dy="4"/>
<feGaussianBlur stdDeviation="3"/>
<feComposite in2="hardAlpha" operator="out"/>
<feColorMatrix type="matrix" values="0 0 0 0 1 0 0 0 0 1 0 0 0 0 1 0 0 0 0.25 0"/>
<feBlend mode="normal" in2="BackgroundImageFix" result="effect1_dropShadow"/>
<feBlend mode="normal" in="SourceGraphic" in2="effect1_dropShadow" result="shape"/>
</filter>
<clipPath id="clip0">
<rect width="131" height="108" fill="white" transform="translate(78 22)"/>
</clipPath>
</defs>
</svg>
