<svg width="118" height="90" viewBox="0 0 118 90" fill="none" xmlns="http://www.w3.org/2000/svg">
<g clip-path="url(#clip0)">
<path d="M10.3728 61.0875C10.8672 61.2056 11.5387 61.8159 11.7326 62.3728L12.7159 64.7466C12.9379 65.2022 12.8957 66.105 12.6316 66.5381L8.70671 72.9619C7.86667 74.34 8.04086 76.2919 9.17029 77.5575L12.494 80.8819C13.6515 81.9112 15.694 82.0969 17.0257 81.2897L23.4427 77.3606C23.8444 77.1131 24.7069 77.0259 25.311 77.31L27.6794 78.2887C28.157 78.4547 28.7667 79.1241 28.8847 79.6191L30.6463 86.9428C31.0199 88.4953 32.5006 89.7722 34.0908 89.9184C34.0908 89.9184 35.0657 90.0084 36.5266 90.0084C37.9876 90.0084 38.9625 89.9184 38.9653 89.9184C39.7703 89.8234 40.5283 89.4891 41.1418 88.9587C41.7552 88.4284 42.1959 87.7262 42.4069 86.9428L44.1713 79.6191C44.2893 79.1269 44.8962 78.4547 45.4525 78.2606L47.8237 77.2762C48.2423 77.0709 49.2116 77.1131 49.6134 77.3606L56.0303 81.2897C56.595 81.6356 57.2693 81.8184 57.9858 81.8184C58.955 81.8184 59.8934 81.4781 60.6211 80.8284L63.9419 77.5013C64.4684 76.8792 64.7901 76.1095 64.863 75.2975C64.9359 74.4855 64.7565 73.6708 64.3493 72.9647L60.4244 66.5409C60.1603 66.1078 60.1182 65.205 60.3739 64.6706L61.3516 62.2997C61.5173 61.8216 62.186 61.2113 62.6805 61.0931L69.9965 59.3297C70.7791 59.1175 71.4804 58.6757 72.0101 58.0612C72.5398 57.4467 72.8738 56.6876 72.9689 55.8816C72.9689 55.8816 73.0589 54.9056 73.0589 53.4431C73.0589 51.9806 72.9689 51.0047 72.9689 51.0019C72.8734 50.1959 72.5394 49.437 72.0097 48.8226C71.48 48.2081 70.7789 47.7663 69.9965 47.5538L62.6833 45.7931C62.1888 45.675 61.5173 45.0647 61.3235 44.5078L60.3401 42.1341C60.1182 41.6784 60.1603 40.7756 60.4244 40.3425L64.3493 33.9188C65.1894 32.5406 65.0152 30.5887 63.8858 29.3231L60.5621 25.9988C59.4018 24.9666 57.3564 24.7809 56.0303 25.5909L49.6134 29.52C49.2116 29.7647 48.3463 29.8575 47.745 29.5706L45.3766 28.5919C44.899 28.4259 44.2921 27.7566 44.1741 27.2616L42.4098 19.9378C42.1978 19.1544 41.7565 18.4523 41.1427 17.922C40.5288 17.3917 39.7705 17.0575 38.9653 16.9622C38.9597 16.965 37.9848 16.875 36.5238 16.875C35.0629 16.875 34.0879 16.965 34.0851 16.965C33.2801 17.0606 32.5219 17.395 31.9081 17.9253C31.2944 18.4555 30.853 19.1574 30.6407 19.9406L28.8819 27.2588C28.7639 27.7538 28.1542 28.4259 27.5979 28.62L25.2267 29.6044C24.8053 29.8097 23.8388 29.7647 23.437 29.52L17.0229 25.5909C15.694 24.7809 13.6936 24.9216 12.4321 26.0522L9.11129 29.3794C8.58482 30.0014 8.26313 30.7711 8.19021 31.5831C8.11729 32.3951 8.2967 33.2099 8.7039 33.9159L12.6288 40.3397C12.8929 40.7728 12.935 41.6756 12.6794 42.21L11.7017 44.5809C11.5359 45.0591 10.8672 45.6694 10.3728 45.7875L3.05676 47.5509C2.27414 47.7631 1.57285 48.2049 1.04311 48.8194C0.513384 49.4339 0.179452 50.193 0.0842857 50.9991C0.0899048 50.9991 0 51.975 0 53.4375C0 54.9 0.0899048 55.8759 0.0899048 55.8787C0.185437 56.6847 0.519499 57.4436 1.04917 58.0581C1.57885 58.6725 2.27994 59.1143 3.06238 59.3269L10.3728 61.0875ZM2.80952 53.4375C2.80952 52.1494 2.88538 51.2803 2.88819 51.2522C2.93295 51.0333 3.03285 50.8296 3.1784 50.6602C3.32395 50.4909 3.51032 50.3616 3.71981 50.2847L11.0358 48.5213C12.4546 48.1781 13.8847 46.8787 14.3286 45.5766L15.2389 43.3631C15.8794 42.0497 15.7895 40.1203 15.0281 38.8716L11.1032 32.4506C10.915 32.1384 10.9684 31.5197 11.1538 31.3088L14.3595 28.0969C14.6151 27.8691 15.267 27.8128 15.5591 27.99L21.9761 31.9191C23.1926 32.6644 25.2773 32.715 26.3814 32.1666L28.5953 31.2497C29.9748 30.7744 31.2728 29.3428 31.6156 27.9197L33.3743 20.5987C33.4506 20.3884 33.5795 20.2011 33.7487 20.0548C33.9179 19.9086 34.1218 19.8083 34.3408 19.7634C34.3689 19.7634 35.237 19.6875 36.5238 19.6875C37.8106 19.6875 38.6787 19.7634 38.7068 19.7662C38.9254 19.8111 39.129 19.9111 39.2981 20.0568C39.4673 20.2025 39.5964 20.389 39.6733 20.5987L41.4349 27.9197C41.7776 29.34 43.0728 30.7744 44.3764 31.2188L46.5875 32.13C47.8715 32.76 49.8606 32.6616 51.0743 31.9191L57.4885 27.99C57.7807 27.8128 58.4718 27.9056 58.6291 28.0406L61.8376 31.2497C62.0792 31.5225 62.1326 32.1384 61.9444 32.4506L58.0195 38.8744C57.2581 40.1203 57.1682 42.0525 57.7722 43.2844L58.6881 45.5006C59.1629 46.8816 60.593 48.1809 62.0146 48.5241L69.3278 50.2847C69.538 50.361 69.725 50.49 69.8711 50.6594C70.0172 50.8288 70.1175 51.0329 70.1622 51.2522C70.1622 51.2803 70.2381 52.1494 70.2381 53.4375C70.2381 54.7256 70.1622 55.5947 70.1594 55.6228C70.1147 55.8417 70.0148 56.0454 69.8692 56.2148C69.7237 56.3841 69.5373 56.5134 69.3278 56.5903L62.0118 58.3537C60.593 58.6969 59.1629 59.9963 58.719 61.2984L57.8088 63.5119C57.1682 64.8253 57.2581 66.7547 58.0195 68.0034L61.9444 74.4244C62.1326 74.7366 62.0792 75.3553 61.8938 75.5662L58.6881 78.7781C58.485 78.9301 58.2364 79.0084 57.9829 79.0003C57.8118 79.0059 57.6422 78.9661 57.4913 78.885L51.0743 74.9559C49.8606 74.2134 47.7759 74.16 46.669 74.7084L44.4551 75.6253C43.0756 76.1006 41.7776 77.535 41.4377 78.9553L39.6761 86.2763C39.5998 86.4866 39.471 86.6739 39.3017 86.8202C39.1325 86.9664 38.9286 87.0667 38.7096 87.1116C38.6787 87.1116 37.8106 87.1875 36.5238 87.1875C35.237 87.1875 34.3689 87.1116 34.3408 87.1087C34.1222 87.0639 33.9186 86.9639 33.7495 86.8182C33.5803 86.6725 33.4512 86.486 33.3743 86.2763L31.6128 78.9525C31.27 77.5322 29.972 76.1006 28.6712 75.6562L26.4601 74.745C25.8314 74.4524 25.1446 74.3062 24.4513 74.3175C23.527 74.3175 22.6476 74.5453 21.9733 74.9588L15.5591 78.8878C15.267 79.065 14.573 78.9694 14.4185 78.8372L11.21 75.6253C10.9684 75.3525 10.915 74.7366 11.1032 74.4244L15.0281 68.0006C15.7895 66.7547 15.8794 64.8225 15.2754 63.5906L14.3595 61.3744C13.8847 59.9934 12.4546 58.6941 11.033 58.3509L3.71981 56.5903C3.50965 56.514 3.32258 56.385 3.17648 56.2156C3.03038 56.0462 2.93015 55.8421 2.88538 55.6228C2.88538 55.5947 2.80952 54.7256 2.80952 53.4375Z" fill="white"/>
<path d="M36.5238 68.9062C45.0451 68.9062 51.9762 61.9678 51.9762 53.4375C51.9762 44.9072 45.0451 37.9688 36.5238 37.9688C28.0025 37.9688 21.0714 44.9072 21.0714 53.4375C21.0714 61.9678 28.0025 68.9062 36.5238 68.9062ZM36.5238 40.7812C43.4942 40.7812 49.1667 46.4597 49.1667 53.4375C49.1667 60.4153 43.4942 66.0938 36.5238 66.0938C29.5534 66.0938 23.881 60.4153 23.881 53.4375C23.881 46.4597 29.5534 40.7812 36.5238 40.7812Z" fill="white"/>
<path d="M77.1973 14.9456C77.0086 15.1576 76.7506 15.2952 76.4696 15.3337L71.2411 15.2831C70.5958 15.3002 69.9702 15.5088 69.4435 15.8823C68.9168 16.2559 68.5128 16.7775 68.2827 17.3812C68.2827 17.3812 68.0523 18.0365 67.7994 19.0406C67.5466 20.0447 67.4398 20.7309 67.4398 20.7309C67.2431 21.9994 67.9483 23.4028 69.0806 23.9962L73.691 26.415C73.9381 26.6024 74.1048 26.8769 74.1574 27.1828L74.4187 28.9687C74.4352 29.2509 74.3516 29.5298 74.1826 29.7562L70.4685 33.4012C69.5385 34.3125 69.2941 35.8706 69.9346 37.094L71.6176 39.9065C72.3284 40.9528 73.868 41.4872 75.0761 41.1103L80.2006 39.5409C80.4788 39.5409 80.7569 39.6478 80.9143 39.7744L82.3612 40.8431C82.5717 41.0329 82.709 41.2907 82.7489 41.5715L82.6983 46.7803C82.6871 48.0628 83.5861 49.3481 84.7942 49.77C84.7942 49.77 85.4488 50.0006 86.4518 50.2537C87.4548 50.5069 88.1404 50.6137 88.1404 50.6137C88.2134 50.625 88.5056 50.6475 88.5786 50.6475C89.1548 50.6403 89.7189 50.4817 90.2144 50.1875C90.71 49.8933 91.1196 49.4738 91.4022 48.9712L93.8184 44.3559C94.0057 44.1085 94.2798 43.9416 94.5854 43.889L96.4481 43.619C96.7291 43.619 97.0606 43.7653 97.1533 43.8609L100.794 47.579C101.679 48.4847 103.171 48.8081 104.483 48.1134L107.29 46.4287C108.363 45.6975 108.883 44.2069 108.495 42.9665L106.944 37.9969C106.903 37.688 106.981 37.3749 107.164 37.1222L108.231 35.6737C108.42 35.4618 108.678 35.3241 108.959 35.2856L114.187 35.3362C114.833 35.3191 115.458 35.1105 115.985 34.737C116.512 34.3635 116.916 33.8418 117.146 33.2381C117.146 33.2381 117.376 32.5828 117.629 31.5787C117.882 30.5747 117.989 29.8884 117.989 29.8884C118.072 29.2424 117.96 28.5861 117.668 28.0041C117.376 27.4222 116.916 26.9412 116.348 26.6231L111.738 24.2044C111.49 24.0169 111.324 23.7424 111.271 23.4365L111.013 21.6562C110.996 21.3741 111.08 21.0951 111.249 20.8687L114.963 17.2237C115.893 16.3125 116.137 14.7544 115.497 13.5309L113.814 10.7184C113.103 9.67498 111.566 9.13498 110.355 9.51185L105.228 11.0812C104.971 11.0809 104.722 10.9991 104.514 10.8478L103.067 9.77904C102.857 9.58926 102.72 9.33142 102.68 9.0506L102.73 3.84185C102.719 3.1909 102.514 2.55813 102.14 2.02522C101.767 1.4923 101.242 1.08371 100.634 0.852166C100.634 0.852166 99.9797 0.621541 98.9767 0.368416C97.9737 0.115291 97.2882 0.00841553 97.2882 0.00841553C97.1424 -0.00609235 96.9962 -0.0164091 96.8499 -0.022522C96.2738 -0.0153383 95.7097 0.143302 95.2141 0.4375C94.7185 0.731698 94.3089 1.15112 94.0263 1.65373L91.6101 6.26904C91.4229 6.51643 91.1487 6.68332 90.8431 6.73592L88.9804 7.0031C88.726 6.99759 88.4796 6.91307 88.2752 6.76123L84.6341 3.0431C84.1582 2.56908 83.5424 2.26114 82.8779 2.16489C82.2135 2.06864 81.5358 2.18921 80.9452 2.50873L78.1357 4.1906C77.0624 4.92185 76.5426 6.41248 76.9304 7.65279L78.4812 12.6225C78.5227 12.9314 78.4442 13.2444 78.2621 13.4972L77.1973 14.9456ZM79.5011 16.5544L80.4647 15.2437C81.2177 14.3522 81.5099 12.8981 81.1615 11.7872L79.6135 6.82029C79.5994 6.74154 79.6612 6.56435 79.6472 6.56154L82.3106 4.96404L82.6281 5.01185L86.272 8.72998C86.9182 9.3881 87.983 9.8156 88.9832 9.8156C89.1756 9.81864 89.3678 9.80072 89.5564 9.76217L91.1718 9.5231C91.7786 9.44942 92.3597 9.23449 92.8686 8.89554C93.3774 8.55659 93.7999 8.10304 94.1022 7.57123L96.5156 2.95873C96.6024 2.86119 96.7228 2.79994 96.8527 2.78717C96.8836 2.78998 97.4567 2.8856 98.294 3.09373C99.1284 3.30467 99.6791 3.4931 99.7044 3.50435C99.7915 3.54092 99.9179 3.72373 99.9235 3.81373L99.8729 9.02248C99.8617 10.1869 100.561 11.4947 101.466 12.0853L102.772 13.05C103.641 13.784 105.13 14.0934 106.225 13.7475L111.209 12.195C111.327 12.195 111.459 12.2681 111.443 12.2315L113.038 14.8978C113.069 14.9709 113.038 15.1565 112.991 15.2156L109.276 18.8634C108.448 19.6819 108.018 21.0994 108.245 22.1512L108.481 23.7684C108.582 24.9272 109.403 26.1619 110.434 26.7019L115.042 29.1178C115.138 29.2054 115.199 29.3255 115.213 29.4553C115.131 29.9402 115.028 30.4216 114.907 30.8981C114.79 31.3744 114.653 31.8454 114.496 32.31C114.46 32.3972 114.277 32.5237 114.187 32.5294L108.956 32.4787C107.801 32.4787 106.509 33.179 105.925 34.0734L104.964 35.3812C104.584 35.862 104.324 36.4256 104.203 37.0261C104.082 37.6267 104.104 38.2474 104.267 38.8378L105.815 43.8047C105.829 43.8806 105.767 44.0606 105.781 44.0634L103.118 45.6609L102.8 45.6131L99.1565 41.895C98.5103 41.2369 97.4455 40.8094 96.4453 40.8094C96.2529 40.8063 96.0607 40.8242 95.8722 40.8628L94.2567 41.1019C93.6499 41.1755 93.0688 41.3905 92.56 41.7294C92.0511 42.0684 91.6286 42.5219 91.3264 43.0537L88.913 47.6662C88.8261 47.7638 88.7058 47.825 88.5758 47.8378C88.0914 47.7553 87.6106 47.6531 87.1346 47.5312C86.6588 47.4146 86.1882 47.2776 85.7242 47.1206C85.6371 47.084 85.5106 46.9012 85.505 46.8112L85.5556 41.6025C85.5668 40.4381 84.8673 39.1303 83.9626 38.5397L82.6562 37.575C82.1754 37.195 81.612 36.9339 81.0116 36.8127C80.4112 36.6915 79.7907 36.7137 79.2005 36.8775L74.2164 38.43C74.0956 38.43 73.9635 38.3653 73.9832 38.3934L72.3874 35.7272C72.3565 35.654 72.3874 35.4684 72.4351 35.4094L76.1493 31.7615C76.9781 30.9431 77.408 29.5256 77.1804 28.4737L76.9444 26.8594C76.8707 26.2516 76.6557 25.6696 76.3166 25.1602C75.9774 24.6507 75.5237 24.228 74.9918 23.9259L70.3842 21.51C70.2876 21.4223 70.2266 21.3022 70.2128 21.1725C70.2156 21.1415 70.3111 20.5678 70.519 19.7297C70.7297 18.8944 70.918 18.3431 70.9292 18.3178C70.9657 18.2306 71.1484 18.104 71.2383 18.0984L76.4696 18.149C77.6243 18.149 78.9167 17.4487 79.5011 16.5544Z" fill="white"/>
<path d="M92.7143 33.75C97.3612 33.75 101.143 29.9644 101.143 25.3125C101.143 20.6606 97.3612 16.875 92.7143 16.875C88.0673 16.875 84.2857 20.6606 84.2857 25.3125C84.2857 29.9644 88.0673 33.75 92.7143 33.75ZM92.7143 19.6875C95.8132 19.6875 98.3333 22.2103 98.3333 25.3125C98.3333 28.4147 95.8132 30.9375 92.7143 30.9375C89.6154 30.9375 87.0952 28.4147 87.0952 25.3125C87.0952 22.2103 89.6154 19.6875 92.7143 19.6875Z" fill="white"/>
<path d="M36.5 40.5833C29.3958 40.5833 23.5833 46.3958 23.5833 53.5C23.5833 60.6041 29.3958 66.4166 36.5 66.4166C43.6042 66.4166 49.4167 60.6041 49.4167 53.5C49.4167 46.3958 43.6042 40.5833 36.5 40.5833ZM36.5 63.8333C30.8038 63.8333 26.1667 59.1962 26.1667 53.5C26.1667 47.8037 30.8038 43.1666 36.5 43.1666C42.1963 43.1666 46.8333 47.8037 46.8333 53.5C46.8333 59.1962 42.1963 63.8333 36.5 63.8333ZM37.1458 47.0416H35.2083V54.7916L41.925 58.925L42.9583 57.2458L37.1458 53.7583V47.0416Z" fill="white"/>
</g>
<defs>
<clipPath id="clip0">
<rect width="118" height="90" fill="white"/>
</clipPath>
</defs>
</svg>
