<svg width="135" height="135" viewBox="0 0 135 135" fill="none" xmlns="http://www.w3.org/2000/svg">
<path d="M67.5 95.625H16.875V28.125H118.125V95.625H67.5Z" stroke="white" stroke-width="2" stroke-linecap="round" stroke-linejoin="round"/>
<path d="M67.5 118.125H95.625" stroke="white" stroke-width="2" stroke-linecap="round"/>
<path d="M67.5 118.125V95.625" stroke="white" stroke-width="2" stroke-linecap="round"/>
<path d="M67.5 118.125H39.375" stroke="white" stroke-width="2" stroke-linecap="round"/>
<path d="M104.506 77.5398L102.085 79.9602C101.766 80.2777 101.334 80.4559 100.884 80.4559C100.433 80.4559 100.001 80.2777 99.6818 79.9602L79.4318 59.7443C78.8775 59.9049 78.3043 59.9909 77.7273 60C76.642 59.9992 75.5726 59.7394 74.6079 59.2421C73.6433 58.7448 72.8113 58.0244 72.1811 57.1409C71.551 56.2573 71.1408 55.236 70.9848 54.162C70.8288 53.088 70.9314 51.9923 71.2841 50.9659L75.6136 55.2955L76.5171 54.3921L78.9375 51.9716L79.8409 51.0682L75.5114 46.7386C76.5377 46.3859 77.6335 46.2833 78.7075 46.4393C79.7815 46.5954 80.8027 47.0055 81.6863 47.6357C82.5699 48.2659 83.2903 49.0979 83.7876 50.0625C84.2849 51.0271 84.5447 52.0966 84.5455 53.1818C84.5363 53.7588 84.4504 54.3321 84.2898 54.8864L104.506 75.1364C104.823 75.4557 105.001 75.8878 105.001 76.3381C105.001 76.7884 104.823 77.2204 104.506 77.5398ZM71.4034 75.1364C71.0859 75.4557 70.9077 75.8878 70.9077 76.3381C70.9077 76.7884 71.0859 77.2204 71.4034 77.5398L73.8239 79.9602C74.1432 80.2777 74.5753 80.4559 75.0256 80.4559C75.4759 80.4559 75.9079 80.2777 76.2273 79.9602L85.5511 70.6534L80.7273 65.8296L71.4034 75.1364ZM101.591 46.3636L94.7727 49.7727V53.1818L91.0739 56.8807L94.483 60.2898L98.1818 56.5909H101.591L105 49.7727L101.591 46.3636Z" fill="white"/>
<g clip-path="url(#clip0)">
<path d="M56.25 36.8182C56.5212 36.8182 56.7814 36.9259 56.9732 37.1177C57.165 37.3095 57.2727 37.5696 57.2727 37.8409V56.25C57.2727 56.5212 57.165 56.7814 56.9732 56.9732C56.7814 57.1649 56.5212 57.2727 56.25 57.2727H29.6591C29.3878 57.2727 29.1277 57.1649 28.9359 56.9732C28.7441 56.7814 28.6364 56.5212 28.6364 56.25V37.8409C28.6364 37.5696 28.7441 37.3095 28.9359 37.1177C29.1277 36.9259 29.3878 36.8182 29.6591 36.8182H56.25ZM29.6591 34.7727C28.8454 34.7727 28.065 35.096 27.4896 35.6714C26.9142 36.2468 26.5909 37.0272 26.5909 37.8409V56.25C26.5909 57.0637 26.9142 57.8441 27.4896 58.4195C28.065 58.9949 28.8454 59.3182 29.6591 59.3182H56.25C57.0637 59.3182 57.8441 58.9949 58.4195 58.4195C58.9949 57.8441 59.3182 57.0637 59.3182 56.25V37.8409C59.3182 37.0272 58.9949 36.2468 58.4195 35.6714C57.8441 35.096 57.0637 34.7727 56.25 34.7727H29.6591Z" fill="white"/>
<path d="M40.9091 41.9318C40.9091 41.6606 41.0168 41.4004 41.2086 41.2086C41.4004 41.0168 41.6606 40.9091 41.9318 40.9091H52.1591C52.4303 40.9091 52.6905 41.0168 52.8823 41.2086C53.0741 41.4004 53.1818 41.6606 53.1818 41.9318C53.1818 42.203 53.0741 42.4632 52.8823 42.655C52.6905 42.8468 52.4303 42.9545 52.1591 42.9545H41.9318C41.6606 42.9545 41.4004 42.8468 41.2086 42.655C41.0168 42.4632 40.9091 42.203 40.9091 41.9318ZM37.8491 40.185C37.9443 40.28 38.0199 40.3928 38.0715 40.5171C38.123 40.6413 38.1496 40.7746 38.1496 40.9091C38.1496 41.0436 38.123 41.1768 38.0715 41.3011C38.0199 41.4253 37.9443 41.5382 37.8491 41.6332L34.7809 44.7013C34.6859 44.7966 34.573 44.8722 34.4488 44.9237C34.3245 44.9753 34.1913 45.0018 34.0568 45.0018C33.9223 45.0018 33.7891 44.9753 33.6648 44.9237C33.5406 44.8722 33.4277 44.7966 33.3327 44.7013L32.31 43.6786C32.2149 43.5835 32.1395 43.4706 32.088 43.3464C32.0366 43.2222 32.0101 43.089 32.0101 42.9545C32.0101 42.6829 32.118 42.4225 32.31 42.2304C32.502 42.0384 32.7625 41.9305 33.0341 41.9305C33.3057 41.9305 33.5661 42.0384 33.7582 42.2304L34.0568 42.5311L36.4009 40.185C36.4959 40.0897 36.6088 40.0142 36.733 39.9626C36.8573 39.9111 36.9905 39.8845 37.125 39.8845C37.2595 39.8845 37.3927 39.9111 37.517 39.9626C37.6412 40.0142 37.7541 40.0897 37.8491 40.185ZM40.9091 50.1136C40.9091 49.8424 41.0168 49.5822 41.2086 49.3904C41.4004 49.1986 41.6606 49.0909 41.9318 49.0909H52.1591C52.4303 49.0909 52.6905 49.1986 52.8823 49.3904C53.0741 49.5822 53.1818 49.8424 53.1818 50.1136C53.1818 50.3849 53.0741 50.645 52.8823 50.8368C52.6905 51.0286 52.4303 51.1363 52.1591 51.1363H41.9318C41.6606 51.1363 41.4004 51.0286 41.2086 50.8368C41.0168 50.645 40.9091 50.3849 40.9091 50.1136ZM37.8491 48.3668C37.9443 48.4618 38.0199 48.5747 38.0715 48.6989C38.123 48.8232 38.1496 48.9564 38.1496 49.0909C38.1496 49.2254 38.123 49.3586 38.0715 49.4829C38.0199 49.6071 37.9443 49.72 37.8491 49.815L34.7809 52.8832C34.6859 52.9784 34.573 53.054 34.4488 53.1055C34.3245 53.1571 34.1913 53.1836 34.0568 53.1836C33.9223 53.1836 33.7891 53.1571 33.6648 53.1055C33.5406 53.054 33.4277 52.9784 33.3327 52.8832L32.31 51.8604C32.2149 51.7653 32.1395 51.6525 32.088 51.5282C32.0366 51.404 32.0101 51.2708 32.0101 51.1363C32.0101 51.0019 32.0366 50.8687 32.088 50.7445C32.1395 50.6202 32.2149 50.5073 32.31 50.4123C32.4051 50.3172 32.518 50.2417 32.6422 50.1903C32.7665 50.1388 32.8996 50.1123 33.0341 50.1123C33.1686 50.1123 33.3017 50.1388 33.426 50.1903C33.5502 50.2417 33.6631 50.3172 33.7582 50.4123L34.0568 50.7129L36.4009 48.3668C36.4959 48.2716 36.6088 48.196 36.733 48.1444C36.8573 48.0929 36.9905 48.0663 37.125 48.0663C37.2595 48.0663 37.3927 48.0929 37.517 48.1444C37.6412 48.196 37.7541 48.2716 37.8491 48.3668Z" fill="white"/>
</g>
<g clip-path="url(#clip1)">
<path d="M56.25 67.5C56.5212 67.5 56.7814 67.6077 56.9732 67.7995C57.165 67.9913 57.2727 68.2515 57.2727 68.5227V86.9318C57.2727 87.203 57.165 87.4632 56.9732 87.655C56.7814 87.8468 56.5212 87.9545 56.25 87.9545H29.6591C29.3878 87.9545 29.1277 87.8468 28.9359 87.655C28.7441 87.4632 28.6364 87.203 28.6364 86.9318V68.5227C28.6364 68.2515 28.7441 67.9913 28.9359 67.7995C29.1277 67.6077 29.3878 67.5 29.6591 67.5H56.25ZM29.6591 65.4545C28.8454 65.4545 28.065 65.7778 27.4896 66.3532C26.9142 66.9286 26.5909 67.709 26.5909 68.5227V86.9318C26.5909 87.7455 26.9142 88.5259 27.4896 89.1013C28.065 89.6767 28.8454 90 29.6591 90H56.25C57.0637 90 57.8441 89.6767 58.4195 89.1013C58.9949 88.5259 59.3182 87.7455 59.3182 86.9318V68.5227C59.3182 67.709 58.9949 66.9286 58.4195 66.3532C57.8441 65.7778 57.0637 65.4545 56.25 65.4545H29.6591Z" fill="white"/>
<path d="M40.9091 72.6136C40.9091 72.3424 41.0168 72.0822 41.2086 71.8905C41.4004 71.6987 41.6606 71.5909 41.9318 71.5909H52.1591C52.4303 71.5909 52.6905 71.6987 52.8823 71.8905C53.0741 72.0822 53.1818 72.3424 53.1818 72.6136C53.1818 72.8849 53.0741 73.145 52.8823 73.3368C52.6905 73.5286 52.4303 73.6364 52.1591 73.6364H41.9318C41.6606 73.6364 41.4004 73.5286 41.2086 73.3368C41.0168 73.145 40.9091 72.8849 40.9091 72.6136ZM37.8491 70.8668C37.9443 70.9618 38.0199 71.0747 38.0715 71.1989C38.123 71.3232 38.1496 71.4564 38.1496 71.5909C38.1496 71.7254 38.123 71.8586 38.0715 71.9829C38.0199 72.1071 37.9443 72.22 37.8491 72.315L34.7809 75.3832C34.6859 75.4784 34.573 75.554 34.4488 75.6055C34.3245 75.6571 34.1913 75.6836 34.0568 75.6836C33.9223 75.6836 33.7891 75.6571 33.6648 75.6055C33.5406 75.554 33.4277 75.4784 33.3327 75.3832L32.31 74.3604C32.2149 74.2654 32.1395 74.1525 32.088 74.0282C32.0366 73.904 32.0101 73.7708 32.0101 73.6364C32.0101 73.3648 32.118 73.1043 32.31 72.9123C32.502 72.7202 32.7625 72.6123 33.0341 72.6123C33.3057 72.6123 33.5661 72.7202 33.7582 72.9123L34.0568 73.2129L36.4009 70.8668C36.4959 70.7716 36.6088 70.696 36.733 70.6444C36.8573 70.5929 36.9905 70.5663 37.125 70.5663C37.2595 70.5663 37.3927 70.5929 37.517 70.6444C37.6412 70.696 37.7541 70.7716 37.8491 70.8668ZM40.9091 80.7954C40.9091 80.5242 41.0168 80.2641 41.2086 80.0723C41.4004 79.8805 41.6606 79.7727 41.9318 79.7727H52.1591C52.4303 79.7727 52.6905 79.8805 52.8823 80.0723C53.0741 80.2641 53.1818 80.5242 53.1818 80.7954C53.1818 81.0667 53.0741 81.3268 52.8823 81.5186C52.6905 81.7104 52.4303 81.8182 52.1591 81.8182H41.9318C41.6606 81.8182 41.4004 81.7104 41.2086 81.5186C41.0168 81.3268 40.9091 81.0667 40.9091 80.7954ZM37.8491 79.0486C37.9443 79.1436 38.0199 79.2565 38.0715 79.3807C38.123 79.505 38.1496 79.6382 38.1496 79.7727C38.1496 79.9072 38.123 80.0404 38.0715 80.1647C38.0199 80.2889 37.9443 80.4018 37.8491 80.4968L34.7809 83.565C34.6859 83.6602 34.573 83.7358 34.4488 83.7874C34.3245 83.8389 34.1913 83.8655 34.0568 83.8655C33.9223 83.8655 33.7891 83.8389 33.6648 83.7874C33.5406 83.7358 33.4277 83.6602 33.3327 83.565L32.31 82.5423C32.2149 82.4472 32.1395 82.3343 32.088 82.21C32.0366 82.0858 32.0101 81.9526 32.0101 81.8182C32.0101 81.6837 32.0366 81.5505 32.088 81.4263C32.1395 81.3021 32.2149 81.1892 32.31 81.0941C32.4051 80.999 32.518 80.9236 32.6422 80.8721C32.7665 80.8206 32.8996 80.7942 33.0341 80.7942C33.1686 80.7942 33.3017 80.8206 33.426 80.8721C33.5502 80.9236 33.6631 80.999 33.7582 81.0941L34.0568 81.3948L36.4009 79.0486C36.4959 78.9534 36.6088 78.8778 36.733 78.8263C36.8573 78.7747 36.9905 78.7482 37.125 78.7482C37.2595 78.7482 37.3927 78.7747 37.517 78.8263C37.6412 78.8778 37.7541 78.9534 37.8491 79.0486Z" fill="white"/>
</g>
<defs>
<clipPath id="clip0">
<rect width="32.7273" height="32.7273" fill="white" transform="translate(26.5909 30.6818)"/>
</clipPath>
<clipPath id="clip1">
<rect width="32.7273" height="32.7273" fill="white" transform="translate(26.5909 61.3636)"/>
</clipPath>
</defs>
</svg>
