<svg width="112" height="112" viewBox="0 0 112 112" fill="none" xmlns="http://www.w3.org/2000/svg">
<path d="M94.5 21C95.4283 21 96.3185 21.3688 96.9749 22.0251C97.6313 22.6815 98 23.5717 98 24.5V77H14V24.5C14 23.5717 14.3687 22.6815 15.0251 22.0251C15.6815 21.3688 16.5717 21 17.5 21H94.5ZM17.5 14C14.7152 14 12.0445 15.1062 10.0754 17.0754C8.10625 19.0445 7 21.7152 7 24.5V84H105V24.5C105 21.7152 103.894 19.0445 101.925 17.0754C99.9555 15.1062 97.2848 14 94.5 14H17.5ZM0 87.5H112C112 90.2848 110.894 92.9555 108.925 94.9246C106.955 96.8938 104.285 98 101.5 98H10.5C7.71523 98 5.04451 96.8938 3.07538 94.9246C1.10625 92.9555 0 90.2848 0 87.5Z" fill="white"/>
<path d="M53.688 59.1205C52.6725 60.17 51.378 60.8853 49.9683 61.1761C48.5585 61.4668 47.0968 61.32 45.768 60.754L37.112 71.512C35.528 73.1455 32.968 73.1455 31.384 71.512C29.8 69.8785 29.8 67.2385 31.384 65.6215L41.816 56.6785C40.728 53.956 41.256 50.722 43.4 48.511C45.448 46.399 48.392 45.838 50.952 46.762L46.328 51.5305L50.84 56.1835L55.416 51.448C56.264 54.055 55.704 57.0415 53.688 59.1205ZM33.096 69.7465C33.736 70.39 34.76 70.39 35.384 69.7465C36.024 69.0865 36.024 68.0305 35.384 67.387C34.76 66.727 33.736 66.727 33.096 67.387C32.796 67.7017 32.6279 68.1254 32.6279 68.5667C32.6279 69.0081 32.796 69.4317 33.096 69.7465Z" fill="white"/>
<path d="M61.8333 39.75C70.3333 30.5829 81.6667 30.5829 90.1667 39.75" stroke="white" stroke-width="2" stroke-linecap="round" stroke-linejoin="round"/>
<path d="M67.5 45.25C72.6 39.75 79.4 39.75 84.5 45.25" stroke="white" stroke-width="2" stroke-linecap="round" stroke-linejoin="round"/>
<path d="M76 52.125C76.7824 52.125 77.4167 51.5094 77.4167 50.75C77.4167 49.9906 76.7824 49.375 76 49.375C75.2176 49.375 74.5833 49.9906 74.5833 50.75C74.5833 51.5094 75.2176 52.125 76 52.125Z" stroke="white" stroke-width="2" stroke-linecap="round" stroke-linejoin="round"/>
</svg>
