<svg width="116" height="116" viewBox="0 0 116 116" fill="none" xmlns="http://www.w3.org/2000/svg">
<path d="M100.902 78.332H95.7453V66.8988H77.6275V78.332H62.7559V66.8988H44.6382V78.332H28.7097V20.1542H44.5201C45.4776 23.0566 47.775 25.3539 50.6774 26.3115V34.607H48.0612L47.8293 44.1786L37.5312 51.0751L44.1907 60.4897L49.1211 57.0017L46.0396 52.6456L53.6967 47.518L61.3539 52.6456L58.2724 57.0017L63.2028 60.4897L69.8626 51.0751L59.5645 44.1786L59.3326 34.607H56.7164V26.3115C60.5697 25.0402 63.3595 21.4079 63.3595 17.1345C63.3595 11.8064 59.0249 7.47174 53.6967 7.47174C49.4231 7.47174 45.7911 10.2616 44.5198 14.1149H28.7097H21.8905H9.08212V79.5858C3.74282 81.9151 0 87.2426 0 93.4301C0 101.755 6.77301 108.528 15.0981 108.528H100.902C109.227 108.528 116 101.755 116 93.4301C116 85.105 109.227 78.332 100.902 78.332ZM53.697 13.511C55.6951 13.511 57.3206 15.1364 57.3206 17.1345C57.3206 19.1326 55.6951 20.7581 53.697 20.7581C51.699 20.7581 50.0735 19.1326 50.0735 17.1345C50.0735 15.1364 51.699 13.511 53.697 13.511ZM83.6668 72.938H89.706V78.332H83.6668V72.938ZM50.6774 72.938H56.7167V78.332H50.6774V72.938ZM15.1214 20.1542H21.8905H22.6704V78.332H15.1214V20.1542ZM100.902 102.489H15.0981C10.1031 102.489 6.03924 98.4252 6.03924 93.4301C6.03924 88.4351 10.1031 84.3712 15.0981 84.3712H100.902C105.897 84.3712 109.961 88.4351 109.961 93.4301C109.961 98.4252 105.897 102.489 100.902 102.489Z" fill="white"/>
<path d="M26.923 90.4104H16.2537V96.4496H26.923V90.4104Z" fill="white"/>
<path d="M51.1974 90.4104H40.5282V96.4496H51.1974V90.4104Z" fill="white"/>
<path d="M75.4718 90.4104H64.8023V96.4496H75.4718V90.4104Z" fill="white"/>
<path d="M99.7463 90.4104H89.077V96.4496H99.7463V90.4104Z" fill="white"/>
</svg>
